<svg width="30" height="30" viewBox="0 0 30 30" fill="none" xmlns="http://www.w3.org/2000/svg">
<path d="M30 0H0V30H30V0ZM16.7575 26.3725V18.3162H19.445L19.9562 14.9838H16.7587V12.8212C16.7587 11.91 17.205 11.02 18.6375 11.02H20.0912V8.1825C20.0912 8.1825 18.7712 7.9575 17.51 7.9575C14.8763 7.9575 13.155 9.55375 13.155 12.4438V14.9838H10.2275V18.3162H13.155V26.3725C7.6425 25.5075 3.4275 20.7375 3.4275 14.9825C3.42625 8.615 8.58875 3.4525 14.9563 3.4525C21.3237 3.4525 26.4862 8.615 26.4862 14.9825C26.4862 20.7375 22.2687 25.5075 16.7575 26.3725Z" fill="white"/>
</svg>
