<svg width="136" height="130" viewBox="0 0 136 130" fill="none" xmlns="http://www.w3.org/2000/svg">
<rect width="136" height="130" rx="65" fill="#C2FFB2"/>
<path d="M91.1511 44.2714L60.061 80.492C59.852 80.7365 59.6036 80.9305 59.33 81.0628C59.0565 81.1952 58.7632 81.2634 58.467 81.2634C58.1708 81.2634 57.8775 81.1952 57.604 81.0628C57.3305 80.9305 57.0821 80.7365 56.873 80.492L44.8501 66.4708C44.641 66.2263 44.3926 66.0323 44.1191 65.9C43.8456 65.7676 43.5523 65.6994 43.2561 65.6994C42.9599 65.6994 42.6666 65.7676 42.3931 65.9C42.1195 66.0323 41.8711 66.2263 41.6621 66.4708C41.4522 66.7144 41.2857 67.0038 41.1721 67.3225C41.0585 67.6412 41 67.9829 41 68.328C41 68.6731 41.0585 69.0148 41.1721 69.3335C41.2857 69.6522 41.4522 69.9416 41.6621 70.1852L53.6896 84.1958C54.9583 85.6713 56.6777 86.5 58.4704 86.5C60.263 86.5 61.9825 85.6713 63.2512 84.1958L94.339 47.9831C94.5485 47.7396 94.7148 47.4504 94.8282 47.1319C94.9416 46.8134 95 46.472 95 46.1273C95 45.7825 94.9416 45.4411 94.8282 45.1226C94.7148 44.8042 94.5485 44.5149 94.339 44.2714C94.13 44.0269 93.8816 43.8329 93.6081 43.7005C93.3345 43.5681 93.0412 43.5 92.745 43.5C92.4489 43.5 92.1556 43.5681 91.882 43.7005C91.6085 43.8329 91.3601 44.0269 91.1511 44.2714Z" fill="#00AB30"/>
</svg>
