<svg width="75" height="72" viewBox="0 0 75 72" fill="none" xmlns="http://www.w3.org/2000/svg">
<rect width="75" height="72" rx="36" fill="#C05621"/>
<g clip-path="url(#clip0_1816_13968)">
<path d="M45 26H30C27.519 26 25.5 28.019 25.5 30.5V41.5C25.5 43.981 27.519 46 30 46H45C47.481 46 49.5 43.981 49.5 41.5V30.5C49.5 28.019 47.481 26 45 26ZM30 27H45C46.084 27 47.043 27.506 47.686 28.283L39.995 35.975C39.333 36.636 38.438 37 37.498 37C36.584 36.983 35.672 36.64 35.006 35.975L27.314 28.283C27.957 27.506 28.915 27 30 27ZM48.5 41.5C48.5 43.43 46.93 45 45 45H30C28.07 45 26.5 43.43 26.5 41.5V30.5C26.5 30.023 26.597 29.569 26.771 29.154L34.299 36.682C35.15 37.533 36.279 38 37.476 38C38.673 38 39.851 37.533 40.702 36.682L48.23 29.154C48.404 29.569 48.501 30.023 48.501 30.5L48.5 41.5Z" fill="white"/>
</g>
<defs>
<clipPath id="clip0_1816_13968">
<rect width="24" height="24" fill="white" transform="translate(25.5 24)"/>
</clipPath>
</defs>
</svg>
