<svg width="75" height="72" viewBox="0 0 75 72" fill="none" xmlns="http://www.w3.org/2000/svg">
<rect width="75" height="72" rx="36" fill="#C05621"/>
<path d="M37.4972 47.999L36.7932 47.404C34.5912 45.541 27.4062 39.076 27.4062 34.091C27.4062 28.527 31.9332 24 37.4972 24C43.0612 24 47.5882 28.527 47.5882 34.091C47.5882 39.076 40.4032 45.541 38.2013 47.404L37.4972 47.999ZM37.4972 25C32.4842 25 28.4062 29.078 28.4062 34.091C28.4062 38.763 35.9302 45.364 37.4382 46.641L37.4972 46.691L37.5562 46.641C39.0642 45.365 46.5882 38.763 46.5882 34.091C46.5882 29.078 42.5103 25 37.4972 25Z" fill="white"/>
<path d="M37.5 38C35.294 38 33.5 36.206 33.5 34C33.5 31.794 35.294 30 37.5 30C39.706 30 41.5 31.794 41.5 34C41.5 36.206 39.706 38 37.5 38ZM37.5 31C35.846 31 34.5 32.346 34.5 34C34.5 35.654 35.846 37 37.5 37C39.154 37 40.5 35.654 40.5 34C40.5 32.346 39.154 31 37.5 31Z" fill="white"/>
</svg>
