<svg width="75" height="72" viewBox="0 0 75 72" fill="none" xmlns="http://www.w3.org/2000/svg">
<rect width="75" height="72" rx="36" fill="#C05621"/>
<path d="M39.1562 31.5312C39.1562 31.8073 39.3803 32.0312 39.6562 32.0312C40.5422 32.0312 41.2622 32.7662 41.2622 33.6692C41.2622 33.9452 41.4863 34.1692 41.7623 34.1692C42.0383 34.1692 42.2623 33.9452 42.2623 33.6692C42.2623 32.2142 41.0933 31.0312 39.6562 31.0312C39.3803 31.0312 39.1562 31.2553 39.1562 31.5312Z" fill="white"/>
<path d="M39.375 27.75C42.819 27.75 45.622 30.598 45.622 34.098C45.622 34.374 45.846 34.598 46.122 34.598C46.398 34.598 46.622 34.374 46.622 34.098C46.622 30.047 43.371 26.75 39.375 26.75C39.099 26.75 38.875 26.974 38.875 27.25C38.875 27.526 39.099 27.75 39.375 27.75Z" fill="white"/>
<path d="M48.2897 40.3147C47.8417 38.9387 46.7277 37.8587 45.3117 37.4267C43.6907 36.9297 41.9337 37.3477 40.7297 38.5137L40.3077 38.9227C39.1087 38.6217 37.5027 37.4777 36.7477 36.7537C35.9817 35.9697 34.8537 34.3687 34.5547 33.2197L34.9637 32.8047C36.1417 31.6077 36.5627 29.8647 36.0617 28.2527C35.6247 26.8467 34.5367 25.7427 33.1497 25.2987C31.5557 24.7877 29.8307 25.2157 28.6867 26.3817C28.5747 26.4747 25.9447 28.6987 26.6067 32.2787C27.2807 35.6957 29.7227 39.4237 31.8567 41.6147C34.0567 43.7197 37.8157 46.1417 41.2607 46.8087C41.6617 46.8817 42.0457 46.9147 42.4127 46.9147C45.2167 46.9147 46.9687 45.0087 47.1777 44.7687C48.3777 43.5957 48.8027 41.8907 48.2887 40.3127L48.2897 40.3147ZM46.4667 44.0677C46.4547 44.0797 46.4427 44.0917 46.4317 44.1047C46.4117 44.1277 44.4807 46.3757 41.4467 45.8267C38.2237 45.2027 34.5757 42.8317 32.5627 40.9047C30.6097 38.8987 28.2207 35.2827 27.5907 32.0907C27.0377 29.1047 29.2327 27.2287 29.3627 27.1167C30.0237 26.4467 30.9027 26.0867 31.8037 26.0867C32.1517 26.0867 32.5037 26.1397 32.8467 26.2497C33.9227 26.5947 34.7687 27.4537 35.1087 28.5477C35.4997 29.8057 35.1717 31.1677 34.2537 32.1007L33.6557 32.7067C33.5437 32.8207 33.4927 32.9807 33.5177 33.1377C33.7507 34.5747 35.1297 36.5247 36.0457 37.4617C36.9807 38.3597 38.9457 39.7277 40.3887 39.9577C40.5427 39.9827 40.7017 39.9327 40.8157 39.8227L41.4267 39.2307C42.3687 38.3177 43.7437 37.9897 45.0207 38.3807C46.1257 38.7187 46.9927 39.5567 47.3397 40.6227C47.7367 41.8417 47.4027 43.1607 46.4677 44.0667L46.4667 44.0677Z" fill="white"/>
</svg>
