<svg width="12" height="14" viewBox="0 0 12 14" fill="none" xmlns="http://www.w3.org/2000/svg">
<path d="M6.95049 1C7.48639 1.52514 7.85416 2.22122 7.96556 3H11.501C11.7771 3 12.001 3.22386 12.001 3.5C12.001 3.77614 11.7771 4 11.501 4H7.96556C7.72294 5.69615 6.26424 7 4.501 7H1.70811L7.85455 13.1464C8.04982 13.3417 8.04982 13.6583 7.85455 13.8536C7.65929 14.0488 7.34271 14.0488 7.14745 13.8536L0.147449 6.85355C-0.167533 6.53857 0.0555499 6 0.501002 6H4.501C5.71048 6 6.71936 5.14112 6.95099 4H0.501002C0.22486 4 0.00100231 3.77614 0.00100231 3.5C0.00100231 3.22386 0.22486 3 0.501002 3H6.95099C6.71936 1.85888 5.71048 1 4.501 1H0.501002C0.22486 1 0.00100231 0.776142 0.00100231 0.5C0.00100231 0.223858 0.22486 0 0.501002 0H4.501H11.501C11.7771 0 12.001 0.223858 12.001 0.5C12.001 0.776142 11.7771 1 11.501 1H6.95049Z" fill="black"/>
</svg>
