<svg width="24" height="24" viewBox="0 0 24 24" fill="none" xmlns="http://www.w3.org/2000/svg">
<path d="M15 2.338V0.5C15 0.224 14.776 0 14.5 0C14.224 0 14 0.224 14 0.5V2.036C13.837 2.013 13.67 2 13.5 2H11V0.5C11 0.224 10.776 0 10.5 0C10.224 0 10 0.224 10 0.5V2H7V0.5C7 0.224 6.776 0 6.5 0C6.224 0 6 0.224 6 0.5V2H3.5C3.33 2 3.163 2.012 3 2.036V0.5C3 0.224 2.776 0 2.5 0C2.224 0 2 0.224 2 0.5V2.338C0.819 2.901 0 4.107 0 5.5V19.5C0 21.981 2.019 24 4.5 24H12.5C14.981 24 17 21.981 17 19.5V5.5C17 4.107 16.181 2.901 15 2.338ZM16 19.5C16 21.43 14.43 23 12.5 23H4.5C2.57 23 1 21.43 1 19.5V5.5C1 4.121 2.122 3 3.5 3H13.5C14.878 3 16 4.121 16 5.5V19.5ZM13 6.5C13 6.776 12.776 7 12.5 7H4.5C4.224 7 4 6.776 4 6.5C4 6.224 4.224 6 4.5 6H12.5C12.776 6 13 6.224 13 6.5ZM13 10.5C13 10.776 12.776 11 12.5 11H4.5C4.224 11 4 10.776 4 10.5C4 10.224 4.224 10 4.5 10H12.5C12.776 10 13 10.224 13 10.5ZM10 14.5C10 14.776 9.776 15 9.5 15H4.5C4.224 15 4 14.776 4 14.5C4 14.224 4.224 14 4.5 14H9.5C9.776 14 10 14.224 10 14.5ZM21.5 0C20.122 0 19 1.121 19 2.5V20.258C19 21.18 19.374 22.081 20.025 22.733L21.146 23.854C21.244 23.952 21.372 24 21.5 24C21.628 24 21.756 23.951 21.854 23.854L22.975 22.733C23.627 22.082 24 21.18 24 20.258V2.5C24 1.121 22.878 0 21.5 0ZM23 20.258C23 20.916 22.733 21.561 22.268 22.026L21.5 22.794L20.732 22.026C20.267 21.561 20 20.917 20 20.258V2.5C20 1.673 20.673 1 21.5 1C22.327 1 23 1.673 23 2.5V20.258Z" fill="#010101"/>
</svg>
