<svg width="24" height="24" viewBox="0 0 24 24" fill="none" xmlns="http://www.w3.org/2000/svg">
<path d="M11.698 9.011L11.983 9.209L12.268 9.011C12.46 8.877 16.983 5.705 16.983 2.93C16.983 1.314 15.75 0 14.233 0C13.282 0 12.472 0.435 11.983 1.128C11.494 0.435 10.684 0 9.733 0C8.216 0 6.983 1.314 6.983 2.93C6.983 5.704 11.505 8.877 11.698 9.011ZM9.733 1C10.747 1 11.483 1.736 11.483 2.75H11.502V3H12.502V2.472C12.623 1.604 13.314 1 14.233 1C15.198 1 15.983 1.866 15.983 2.93C15.983 4.665 13.319 6.995 11.983 7.984C10.647 6.996 7.983 4.668 7.983 2.93C7.983 1.866 8.768 1 9.733 1ZM24.002 5.5V18.731C24.002 19.349 23.773 19.945 23.357 20.407L20.16 24H18.816L22.615 19.737C22.865 19.46 23.002 19.102 23.002 18.731V5.5C23.002 4.673 22.329 4 21.502 4C20.675 4 20.002 4.673 20.002 5.5V14.5H19.997C19.997 15.07 19.804 15.64 19.417 16.101L16.319 19.307L15.6 18.612L18.674 15.433C18.893 15.171 19.003 14.838 19.001 14.501V14.46C18.99 14.116 18.864 13.771 18.619 13.498C18.069 12.885 17.122 12.832 16.506 13.382L12.657 16.924C12.879 17.304 13 17.739 13 18.186V24H12V18.186C12 17.768 11.823 17.365 11.516 17.082L7.49 13.377C6.881 12.831 5.933 12.883 5.382 13.497C4.888 14.048 4.875 14.891 5.35 15.457L8.401 18.61L7.682 19.305L4.608 16.126C4.209 15.652 4.011 15.074 4.008 14.499H4V5.5C4 4.673 3.327 4 2.5 4C1.673 4 1 4.673 1 5.5V18.731C1 19.102 1.137 19.46 1.387 19.737L5.186 24H3.842L0.645 20.407C0.229 19.945 0 19.349 0 18.731V5.5C0 4.122 1.122 3 2.5 3C3.878 3 5 4.122 5 5.5V12.498C5.933 11.799 7.262 11.831 8.162 12.637L12 16.169L15.833 12.641C16.737 11.83 18.067 11.799 19 12.498V5.5C19 4.122 20.122 3 21.5 3C22.878 3 24 4.122 24 5.5H24.002Z" fill="white"/>
</svg>
