<svg width="24" height="24" viewBox="0 0 24 24" fill="none" xmlns="http://www.w3.org/2000/svg">
<path d="M13.5 13.0003C13.776 13.0003 14 12.7763 14 12.5003C14 12.2243 13.776 12.0003 13.5 12.0003H1.731C1.328 12.0003 1 11.6723 1 11.2693C1 10.9883 1.157 10.7363 1.41 10.6123L9.476 6.66328C9.637 6.57728 9.818 6.53228 10 6.53228C10.182 6.53228 10.363 6.57728 10.54 6.67228L17.78 10.2163C17.85 10.2503 17.926 10.2673 18 10.2673C18.185 10.2673 18.362 10.1643 18.449 9.98728C18.57 9.73928 18.468 9.43928 18.22 9.31828L10.996 5.78328C10.84 5.69928 10.672 5.63728 10.5 5.59528V5.21128L13.935 3.49128C14.289 3.24828 14.5 2.83528 14.5 2.38728C14.5 1.93928 14.289 1.52728 13.935 1.28328C13.91 1.26528 11.607 0.232283 11.607 0.232283C11.45 0.162283 11.29 0.102283 11.129 0.0542831C10.749 -0.0617169 10.347 0.0102831 10.024 0.250283C9.696 0.493283 9.501 0.881283 9.501 1.28728V5.59228C9.332 5.63328 9.169 5.69328 9.022 5.77228L0.97 9.71328C0.372 10.0073 0 10.6033 0 11.2693C0 12.2243 0.777 13.0003 1.731 13.0003H2V21.0513C0.86 21.2833 0 22.2933 0 23.5003C0 23.7763 0.224 24.0003 0.5 24.0003C0.776 24.0003 1 23.7763 1 23.5003C1 22.6733 1.673 22.0003 2.5 22.0003H10.5C10.776 22.0003 11 21.7763 11 21.5003C11 21.2243 10.776 21.0003 10.5 21.0003H9V13.0003H11V17.5003C11 17.7763 11.224 18.0003 11.5 18.0003C11.776 18.0003 12 17.7763 12 17.5003V13.0003H13.5ZM10.5 1.28728C10.5 1.15528 10.583 1.08028 10.619 1.05328C10.648 1.03228 10.702 1.00128 10.77 1.00128C10.792 1.00128 10.816 1.00428 10.841 1.01228C10.961 1.04728 13.394 2.12728 13.394 2.12728C13.46 2.18728 13.499 2.28128 13.499 2.38628C13.499 2.50428 13.45 2.60928 13.427 2.63028L10.499 4.09228V1.28728H10.5ZM5 13.0003V21.0003H3V13.0003H5ZM8 21.0003H6V13.0003H8V21.0003ZM19.686 15.1713C20.085 14.8113 20.529 14.3463 20.838 13.8193C21.055 13.4483 21.056 13.0023 20.838 12.6243C20.617 12.2393 20.206 12.0003 19.766 12.0003H17.233C16.793 12.0003 16.381 12.2393 16.161 12.6243C15.944 13.0023 15.945 13.4483 16.161 13.8193C16.47 14.3453 16.914 14.8113 17.313 15.1713C14.997 15.8533 12.999 18.4033 12.999 21.0003C12.999 22.6473 14.345 23.9883 15.999 23.9883H20.999C22.653 23.9883 23.999 22.6473 23.999 21.0003C23.999 18.4033 22.001 15.8533 19.685 15.1713H19.686ZM17.025 13.3143C16.98 13.2383 17.003 13.1683 17.029 13.1223C17.045 13.0943 17.108 13.0013 17.233 13.0013H19.766C19.891 13.0013 19.954 13.0943 19.97 13.1223C19.996 13.1683 20.019 13.2383 19.974 13.3143C19.584 13.9793 18.886 14.5663 18.499 14.8593C18.112 14.5663 17.415 13.9793 17.025 13.3143ZM21 22.9893H16C14.897 22.9893 14 22.0973 14 21.0013C14 18.5193 16.271 15.9893 18.5 15.9893C20.729 15.9893 23 18.5183 23 21.0013C23 22.0983 22.103 22.9893 21 22.9893Z" fill="black"/>
</svg>
