<svg width="69" height="74" viewBox="0 0 69 74" fill="none" xmlns="http://www.w3.org/2000/svg">
<rect width="69" height="73.1331" rx="34.5" transform="matrix(-1 0 0 1 69 0)" fill="#D0D0D0"/>
<g clip-path="url(#clip0_73_7351)">
<path d="M28.5791 26.0715C28.5794 26.4692 28.7377 26.8504 29.0191 27.1315L36.6911 34.8035C36.9233 35.0356 37.1075 35.3113 37.2332 35.6146C37.3588 35.918 37.4235 36.2431 37.4235 36.5715C37.4235 36.8998 37.3588 37.225 37.2332 37.5283C37.1075 37.8317 36.9233 38.1073 36.6911 38.3395L29.0291 46.0015C28.7558 46.2844 28.6046 46.6633 28.608 47.0566C28.6115 47.4499 28.7692 47.8261 29.0473 48.1042C29.3254 48.3823 29.7017 48.5401 30.095 48.5435C30.4882 48.5469 30.8671 48.3957 31.1501 48.1225L38.8121 40.4665C39.8423 39.4342 40.4209 38.0354 40.4209 36.577C40.4209 35.1186 39.8423 33.7197 38.8121 32.6875L31.1401 25.0105C30.9303 24.8006 30.6629 24.6576 30.3719 24.5997C30.0808 24.5417 29.7791 24.5714 29.5049 24.685C29.2308 24.7986 28.9964 24.991 28.8316 25.2378C28.6668 25.4846 28.5789 25.7747 28.5791 26.0715Z" fill="black"/>
</g>
<defs>
<clipPath id="clip0_73_7351">
<rect width="24" height="24" fill="white" transform="matrix(-1 0 0 1 46.5 24.5664)"/>
</clipPath>
</defs>
</svg>
