<svg width="69" height="74" viewBox="0 0 69 74" fill="none" xmlns="http://www.w3.org/2000/svg">
<rect width="69" height="73.1331" rx="34.5" fill="#C05621"/>
<g clip-path="url(#clip0_73_7348)">
<path d="M40.4209 26.0715C40.4206 26.4692 40.2623 26.8504 39.9809 27.1315L32.3089 34.8035C32.0767 35.0356 31.8925 35.3113 31.7668 35.6146C31.6412 35.918 31.5765 36.2431 31.5765 36.5715C31.5765 36.8998 31.6412 37.225 31.7668 37.5283C31.8925 37.8317 32.0767 38.1073 32.3089 38.3395L39.9709 46.0015C40.2442 46.2844 40.3954 46.6633 40.392 47.0566C40.3885 47.4499 40.2308 47.8261 39.9527 48.1042C39.6746 48.3823 39.2983 48.5401 38.905 48.5435C38.5118 48.5469 38.1329 48.3957 37.8499 48.1225L30.1879 40.4665C29.1577 39.4342 28.5791 38.0354 28.5791 36.577C28.5791 35.1186 29.1577 33.7197 30.1879 32.6875L37.8599 25.0105C38.0697 24.8006 38.3371 24.6576 38.6281 24.5997C38.9192 24.5417 39.2209 24.5714 39.4951 24.685C39.7692 24.7986 40.0036 24.991 40.1684 25.2378C40.3332 25.4846 40.4211 25.7747 40.4209 26.0715Z" fill="white"/>
</g>
<defs>
<clipPath id="clip0_73_7348">
<rect width="24" height="24" fill="white" transform="translate(22.5 24.5664)"/>
</clipPath>
</defs>
</svg>
